<?xml version="1.0" encoding="utf-8"?>
<!-- Generator: Adobe Illustrator 23.0.6, SVG Export Plug-In . SVG Version: 6.00 Build 0)  -->
<svg version="1.1" id="Layer_1" xmlns="http://www.w3.org/2000/svg" xmlns:xlink="http://www.w3.org/1999/xlink" x="0px" y="0px"
	 viewBox="0 0 48 48" style="enable-background:new 0 0 48 48;" xml:space="preserve">
<style type="text/css">
	.st0{fill:#FFFFFF;}
</style>
<title>offerings3</title>
<g>
	<path class="st0" d="M0.1,40.3c0.3-1.8,1.2-3.4,2.7-4.5c0.9-0.7,2-1.2,3.2-1.3c0.1,0,0.2-0.1,0.4-0.1c-0.9-0.8-1.5-1.8-1.7-3
		c-0.6-2.9,1.4-5.7,4.3-6.3C9.3,25,9.8,25,10.2,25c6.7,0,13.4,0,20.2,0c0.4,0,0.5,0.1,0.5,0.5c0,0.9,0,0.9-0.9,0.9
		c-6.6,0-13.2,0-19.7,0c-1.4,0-2.7,0.5-3.5,1.6c-0.9,1.3-1.1,2.7-0.4,4.1s1.9,2.2,3.5,2.2c2,0,4,0,6,0c0.4,0,0.5,0.1,0.5,0.5
		c0,0.9,0,0.9-0.9,0.9c-3,0-6,0-8.9,0c-2.4,0-4.6,2-5,4.3c-0.5,2.9,1.2,5.6,4,6.3c0.4,0.1,0.8,0.2,1.2,0.2c13.2,0,26.3,0,39.5,0
		c0.4,0,0.5-0.1,0.4-0.5c0-1,0-1-1-1c-1.3,0-2.6,0-3.8,0c-0.3,0-0.4-0.1-0.4-0.4c0-1,0-1,1-1c0.8,0,1.5,0,2.3,0c0.2,0,0.4,0,0.4-0.3
		c0-1.1,0-1.1-1.1-1.1c-9.9,0-19.7,0-29.6,0c-0.5,0-0.6-0.1-0.5-0.6c0-0.8,0-0.8,0.9-0.8c10,0,19.9,0,29.9,0c0.4,0,0.6-0.1,0.5-0.5
		c0-0.5,0-1,0-1.5c0-0.3,0-0.4-0.3-0.3c-0.1,0-0.1,0-0.2,0c-12.5,0-24.9,0-37.4,0c-0.8,0-1.5,0.1-2.1,0.7C4,40.2,4,41.8,4.9,42.9
		c0.5,0.6,1.2,0.9,1.9,0.9c10.9,0,21.7,0,32.6,0c0.4,0,0.5,0.1,0.5,0.5c0,0.9,0,0.9-0.9,0.9h-32C5,45.2,3.4,44,3,42.1
		c-0.5-2.1,1-4.4,3.1-4.8c0.4-0.1,0.7-0.1,1.1-0.1c13,0,26,0,38.9,0c0.4,0,0.5-0.1,0.5-0.5c0-0.9,0-0.9-0.9-0.9
		c-9.1,0-18.2,0-27.4,0c-0.4,0-0.5-0.1-0.5-0.5c0-0.9,0-0.9,0.9-0.9c7.6,0,15.3,0,22.9,0c0.4,0,0.5-0.1,0.5-0.5c0-0.9,0-0.9-0.9-0.9
		h-31c-1.4,0-2.4-0.6-2.7-1.8c-0.4-1.3,0.4-2.8,1.7-3.2c0.2-0.1,0.5-0.1,0.7-0.1c0.5,0,0.9,0,1.4,0c0.2,0,0.3,0.1,0.3,0.3
		c0.1,1.1,0.1,1.1-1,1.1c-0.2,0-0.4,0-0.7,0c-0.6,0-1.1,0.6-1.1,1.2c0,0.6,0.5,1.1,1.1,1.2c0.1,0,0.3,0,0.4,0c9.9,0,19.9,0,29.8,0
		c0.4,0,0.6-0.1,0.5-0.5c0-0.5,0-1,0-1.5c0-0.3-0.1-0.4-0.4-0.4c-0.1,0-0.3,0-0.4,0c-8.8,0-17.6,0-26.4,0c-0.4,0-0.5-0.1-0.5-0.5
		c0-0.9,0-0.9,0.9-0.9c9.2,0,18.5,0,27.7,0c0.4,0,0.6-0.1,0.5-0.5c0-0.9,0-0.9-0.9-0.9c-2.8,0-5.6,0-8.4,0c-0.4,0-0.5-0.1-0.5-0.5
		c0-0.9,0-0.9,0.9-0.9c3.3,0,6.6,0,9.8,0c0.4,0,0.5,0.1,0.5,0.5c0,1.1,0,2.2,0,3.4c0,0.3-0.1,0.4-0.4,0.4c0,0-0.1,0-0.1,0
		c-1,0-1,0-1,1.1c0,0.3,0,0.7,0,1c0,0.2,0.1,0.3,0.3,0.3c0.1,0,0.2,0,0.2,0c1,0,1,0,1,1c0,0.5,0,1,0,1.5c0,0.3,0.1,0.3,0.3,0.3
		c1.3,0,2.5,0,3.8,0c0.3,0,0.4,0.1,0.4,0.4c0,1.1,0,2.3,0,3.4c0,0.3-0.1,0.4-0.4,0.4c-0.4,0-0.8-0.2-1,0.1c-0.2,0.3-0.1,1.2-0.1,1.6
		c0,1,0,2.1,0,3.1c0,0.3,0,0.4,0.4,0.4c0.4,0,0.9-0.2,1.1,0.1c0.2,0.2,0.1,0.7,0.1,1.1c0,0.9,0,1.8,0,2.7c0,0.3-0.1,0.4-0.3,0.3
		c0,0-0.1,0-0.1,0C34,48,20.5,48,7,48c-2.8,0-5.5-1.9-6.5-4.5C0.1,42.5-0.1,41.4,0.1,40.3z"/>
	<path class="st0" d="M0,40.9c0.2,0.2,0.2,0.5,0,0.7V40.9z"/>
	<path class="st0" d="M9.6,41.7c0,0.7,0,0.7-0.8,0.7c-0.6,0-0.6,0-0.6-0.9c0-0.5,0-0.5,0.9-0.5C9.6,41,9.6,41,9.6,41.7z"/>
	<path class="st0" d="M11.1,41.6c0-0.7,0-0.7,0.8-0.7c0.6,0,0.6,0,0.6,0.8c0,0.6,0,0.5-0.9,0.6C10.8,42.4,11.1,42,11.1,41.6z"/>
	<path class="st0" d="M42.5,16.8c0-1.1-0.6-1.9-1.6-2.4c-0.2-0.1-0.3-0.2-0.3-0.5c0-2.1,0-4.3,0-6.4c0-0.3,0.1-0.4,0.4-0.5
		c0.7-0.2,1.3-0.4,2.1-0.7c-0.2-0.1-0.2-0.1-0.3-0.1c-2.1-0.7-4.3-1.4-6.4-2.1c-0.6-0.2-0.6-0.2-0.9,0.4c-0.2,0.7-0.2,0.7,0.5,0.9
		c0.9,0.3,1.7,0.6,2.6,0.9c-0.1,0.1-0.1,0.1-0.1,0.1C33.8,8,29,9.6,24.3,11.2c-0.2,0.1-0.5,0.1-0.8,0c-4.6-1.5-9.2-3.1-13.8-4.6
		c-0.1,0-0.3,0-0.3-0.2l14.4-4.8c0.2-0.1,0.4,0,0.5,0c2.9,1,5.8,1.9,8.7,2.9c0.9,0.3,0.9,0.3,1.2-0.6c0.1-0.3,0-0.4-0.3-0.5
		c-2-0.7-4.1-1.3-6.1-2c-1.3-0.4-2.5-0.8-3.8-1.3h-0.2c0,0.1-0.1,0.1-0.1,0.1c-6,2-12,4-18,6C5.5,6.2,5.2,6.2,5,6.4
		c2.5,0.8,5,1.7,7.5,2.5C12.9,9,13,9.1,13,9.5c0,3.4,0,6.8,0,10.3c0,1.3,0,1.3,1.2,1.8c2.4,1,4.9,1.3,7.5,1.5
		c2.9,0.1,5.7,0.1,8.5-0.4c1.5-0.3,3-0.7,4.3-1.4c0.3-0.2,0.5-0.4,0.5-0.8c0-3.6,0-7.2,0-10.8c0-0.8,1-0.9,1.7-1.1l2.6-0.9
		c0,2.2,0,4.3,0,6.4c0,0.3-0.2,0.3-0.3,0.4c-0.9,0.4-1.5,1.1-1.5,2.2c-0.1,1.1,0,2.2,0,3.4c0,0.2,0.1,0.3,0.3,0.3c1.5,0,3,0,4.5,0
		c0.2,0,0.3-0.1,0.3-0.3C42.5,18.9,42.5,17.8,42.5,16.8z M31.6,19.3c0.5,0,1.1,0,1.6,0c0.2,0,0.4-0.1,0.4,0.2c0,0.3,0.2,0.6-0.2,0.8
		c-1,0.4-2,0.7-3.1,0.9c-3,0.6-6.1,0.7-9.2,0.5c-2.1-0.2-4.3-0.5-6.3-1.3c-0.4-0.1-0.5-0.3-0.5-0.7c0-1.6,0-3.2,0-4.8
		c0-1.6,0-3.2,0-4.8c0-0.4,0-0.5,0.5-0.3c2.9,1,5.9,2,8.9,3c0.2,0.1,0.5,0.1,0.7,0c2.9-1,5.8-2,8.8-2.9c0.5-0.2,0.5-0.2,0.5,0.4
		c0,1.5,0,3.1,0,4.6c0,0.3-0.1,0.4-0.4,0.4c-0.2,0-0.4,0-0.6,0c-0.3,0-0.7-0.1-0.7,0.1c-0.1,0.3-0.1,0.8-0.1,1.1
		c0,0.2,0.2,0.1,0.3,0.1c0.4,0,0.8-0.1,1.2,0c0.5,0.1,0.5,1.5,0,1.5c-0.8,0-1.6,0-2.4,0c-0.3,0-0.3,0.1-0.3,0.3
		C30.5,19.3,30.5,19.3,31.6,19.3z M41.2,16.7v2.4h-2.4v-2.4c0-0.7,0.5-1.2,1.2-1.2C40.6,15.5,41.2,16,41.2,16.7
		C41.2,16.7,41.2,16.7,41.2,16.7z"/>
	<path class="st0" d="M28.5,19.3c-0.7,0-0.7,0-0.7-0.8c0-0.6,0-0.6,0.9-0.6c0.5,0,0.5,0,0.5,0.8C29.2,19.4,28.8,19.2,28.5,19.3z"/>
</g>
</svg>
