<?xml version="1.0" encoding="utf-8"?>
<!-- Generator: Adobe Illustrator 23.0.6, SVG Export Plug-In . SVG Version: 6.00 Build 0)  -->
<svg version="1.1" id="Layer_1" xmlns="http://www.w3.org/2000/svg" xmlns:xlink="http://www.w3.org/1999/xlink" x="0px" y="0px"
	 viewBox="0 0 48 48" style="enable-background:new 0 0 48 48;" xml:space="preserve">
<style type="text/css">
	.st0{fill:#FFFFFF;}
</style>
<title>offerings1</title>
<g>
	<path class="st0" d="M41.1,46.9c0-3.2,0-6.3,0-9.5c0-0.7,0-1.4,0-2.1l0.1,0L41.1,46.9C41.2,46.9,41.2,46.9,41.1,46.9
		C41.1,46.9,41.1,46.9,41.1,46.9z"/>
	<path class="st0" d="M21.3,23c-1.3-0.1-2.3-0.6-2.9-1.7c-0.3-0.4-0.2-0.8,0.2-1.1c0.4-0.2,0.7-0.1,1,0.3c0.9,1.4,2.6,1.4,3.5,0
		c0.3-0.4,0.7-0.5,1-0.3c0.3,0.2,0.4,0.6,0.2,1C23.6,22.4,22.6,22.9,21.3,23z"/>
	<path class="st0" d="M17.4,16.8c0,0.5-0.3,0.8-0.7,0.8S16,17.3,16,16.8s0.3-0.8,0.7-0.8C17.2,16,17.5,16.3,17.4,16.8z"/>
	<path class="st0" d="M26.5,16.8c0,0.5-0.3,0.8-0.7,0.8c-0.4,0-0.7-0.3-0.7-0.8c0-0.5,0.3-0.8,0.7-0.8C26.2,16,26.5,16.3,26.5,16.8z
		"/>
	<g>
		<path class="st0" d="M25.2,40.4c-0.4,0-0.8,0.3-0.8,0.7c0,0,0,0,0,0c0,0.4,0.3,0.7,0.7,0.7c0,0,0,0,0,0c0.4,0,0.7-0.3,0.7-0.7
			c0,0,0,0,0,0C25.9,40.7,25.6,40.4,25.2,40.4z"/>
		<path class="st0" d="M41.1,35.3c-0.2-0.7-0.6-1.1-1.4-1.1c-0.3,0-0.5,0-0.8,0c-0.4,0-0.5-0.1-0.5-0.5c0-1.7,0-3.5,0-5.2
			c0-0.5-0.1-1-0.4-1.4c-0.5-0.8-1.5-1.1-2.4-0.8c-0.9,0.3-1.5,1.1-1.5,2.1c0,1.4,0,2.8,0,4.3c0,0.5,0.2,1.2-0.1,1.4
			c-0.3,0.2-1,0.1-1.4,0.1c0,0-0.1,0-0.1,0c-0.1,0-0.2,0-0.3-0.2c-0.5-1-1.3-1.6-2.3-2.1c-1.1-0.6-2.2-0.9-3.4-1.2
			c-0.3-0.1-0.6-0.1-0.7-0.5c-0.2-0.8-0.2-1.5-0.3-2.4c1.5,0.4,2.8,1,4,1.9c0.8,0.6,1.6,0.5,2.2-0.3c1.1-1.4,2-3.1,2.7-4.8
			c1.6-4.5,1.6-9,0.3-13.5c-0.8-2.9-2.1-5.5-4.4-7.6c-4-3.6-8.7-4.4-13.9-2.9c-1.4,0.4-2.6,1.1-3.4,2.3c-0.1,0.1-0.2,0.1-0.3,0.2
			C10.5,4.5,9.2,6.6,8.3,9c0,0,0,0,0,0.1C8.1,9.4,8.3,9.8,8.7,9.9C9,10,9.3,9.9,9.5,9.5c0.1-0.1,0.1-0.2,0.1-0.3
			c0.4-0.9,0.8-1.7,1.4-2.5c0.7-1,1.5-1.9,2.7-2.3C14,4.3,14.1,4.2,14.2,4c0.3-0.6,0.8-1,1.4-1.3c1.3-0.7,2.7-1.1,4.2-1.2
			c5-0.4,9.1,1.4,11.8,5.8c1.4,2.3,2.1,4.8,2.5,7.4c0.1,0.9,0.2,1.8,0.2,2.8c-0.5-0.7-1.1-1.1-1.9-1.3c-0.3-0.1-0.7,0-1,0
			c-0.2,0-0.4,0.1-0.4-0.2c0-0.3,0.2-0.1,0.4-0.1c0.4,0,0.8,0,1.2,0c0.1,0,0.2,0,0.3-0.1c0.3-0.2,0.5-0.6,0.3-0.9
			c-0.2-0.4-0.5-0.4-0.9-0.4c-1.7,0-3.5-0.1-5.2-0.4c-2.5-0.4-4.9-1-7.1-2.3c-1.6-1-3.1-2.1-3.6-4.1c-0.1-0.4-0.5-0.5-0.9-0.4
			C15.2,7.3,15,7.6,15.1,8c0.1,0.6,0.4,1.2,0.7,1.7c0.2,0.3,0.2,0.5,0,0.8c-0.7,1.2-1.8,1.9-3.2,2c-0.8,0.1-0.9,0.2-1,1
			c-0.1,0.8-0.2,1.6-0.2,2.3c0,0.2-0.1,0.3-0.3,0.3c-0.4,0-0.7,0-1.1,0c-0.8,0.1-1.3,0.6-1.8,1.3c-0.1-1,0-1.9,0.1-2.8
			c0.1-0.9,0.3-1.7,0.4-2.6c0.1-0.5-0.1-0.8-0.5-0.9c-0.4-0.1-0.7,0.1-0.9,0.6c0,0.1,0,0.1,0,0.2c-0.6,2.7-0.7,5.5-0.3,8.2
			c0.5,3.5,1.9,6.7,4.2,9.5c0.5,0.6,1.2,0.7,1.9,0.3c0.1-0.1,0.2-0.2,0.4-0.3c1-0.7,2.2-1.3,3.4-1.6c-0.1,0.4-0.1,0.8-0.1,1.2
			c-0.1,1.5-0.2,1.3-1.4,1.6c-1.5,0.4-2.9,0.9-4.2,1.9c-0.9,0.7-1.3,1.6-1.4,2.7c0,0,0,0,0,0c-0.1,0.4,0.2,0.7,0.6,0.8
			c0.4,0.1,0.7-0.1,0.8-0.5c0-0.1,0.1-0.3,0.1-0.4c0.1-0.7,0.5-1.2,1-1.6c0.8-0.6,1.8-1,2.7-1.3c0.3-0.1,0.5-0.1,0.6,0.3
			c1,2.3,2.5,4.1,4.5,5.6c0.7,0.5,1.4,0.7,2.2,0.1c0.1,0,0.1-0.1,0.2-0.1c0,2.7,0,5.4,0,8c0,0.3-0.2,0.2-0.4,0.2c-3.2,0-6.3,0-9.5,0
			c-0.3,0-0.4-0.1-0.4-0.4c-0.1-0.7-0.3-1.3-0.4-2c-0.4-1.9-0.6-3.9-0.7-5.9c0-0.5-0.3-0.8-0.7-0.7c-0.4,0-0.7,0.3-0.7,0.8
			c0,0.2,0,0.4,0,0.6c0.2,2.7,0.7,5.4,1.3,8.1c0.1,0.4,0.2,0.6,0.6,0.8l28.6,0c0.8-0.2,1.1-0.5,1.1-1.3c0-3.6,0-7.3,0-10.9
			C41.2,35.7,41.2,35.5,41.1,35.3z M37.1,40.3c0,0.4-0.1,0.5-0.5,0.5c-1,0-1,0-1-1.1l0-3.7c0-1.4,0-2.8,0-4.3c0-0.3,0-0.4,0.4-0.4
			c1.1,0,1.1,0,1.1,1.1C37.1,35.1,37.1,37.7,37.1,40.3z M36.9,42.2c-0.1,0.4-0.3,0.7-0.5,1.1c-0.2-0.3-0.4-0.7-0.5-1.1H36.9z
			 M35.6,29.4c0-0.3,0-0.7,0-1c0-0.5,0.3-0.8,0.8-0.8c0.4,0,0.7,0.3,0.7,0.8c0,0.2,0,0.4,0,0.7c0,0.9,0,0.9-0.9,0.9
			C35.7,30,35.5,29.9,35.6,29.4z M27,32.5c0-0.1,0.1-0.2,0.2-0.1c0,0,0,0,0,0c1.3,0.4,2.5,0.8,3.5,1.8h-4.6
			C26.5,33.6,26.8,33.1,27,32.5z M31.2,17.8c0-0.5,0.4-0.1,0.6-0.2c1.1-0.1,1.7,0.8,1.4,1.7c-0.2,0.6-1.2,1-1.8,0.8
			c-0.2-0.1-0.1-0.2-0.1-0.3C31.2,19.1,31.2,18.4,31.2,17.8z M31.1,21.8c0-0.2,0-0.4,0.3-0.4c1,0.1,1.9-0.2,2.7-1.1
			c-0.2,1.2-0.4,2.4-0.9,3.6c-0.6,1.6-1.4,3.2-2.4,4.5c-0.2,0.2-0.3,0.3-0.6,0.1c-0.8-0.7-1.8-1.1-2.8-1.5c0.2-0.2,0.4-0.3,0.6-0.4
			C29.9,25.6,31,24,31.1,21.8z M9.5,18.1c0.3-0.5,1.1-0.8,1.7-0.6c0.2,0,0.1,0.2,0.1,0.3c0,0.3,0,0.7,0,1l0,0v0.7
			c0,0.6,0,0.6-0.6,0.6C9.6,20,8.9,19,9.5,18.1z M12.5,28.7c-0.2,0.2-0.3-0.1-0.4-0.2c-1.3-1.7-2.3-3.6-3-5.7
			c-0.2-0.8-0.4-1.5-0.6-2.3c0.7,0.8,1.6,1,2.5,0.9c0.3,0,0.4,0.1,0.4,0.4c0.1,2.3,1.3,3.9,3.3,5c0.2,0.1,0.3,0.2,0.5,0.3
			C14.2,27.6,13.3,28,12.5,28.7z M14.8,25.2c-1.2-0.8-1.8-1.8-1.9-3.2c-0.2-2.1-0.1-4.1,0.1-6.2c0-0.4,0.1-0.8,0.1-1.2
			c0-0.5,0.2-0.7,0.6-0.7c1.5-0.3,2.6-1.2,3.5-2.6c3,2.7,6.7,3.7,10.5,4.2c0.6,0.1,1.2,0.1,1.8,0.2c0.2,0,0.3,0,0.3,0.3
			c0.2,2.2,0.3,4.5-0.1,6.7c-0.2,1-0.7,1.8-1.6,2.4c-2,1.4-4.2,2.2-6.6,2.4c-1.2,0.1-2.3-0.3-3.4-0.6C16.9,26.3,15.8,25.8,14.8,25.2
			z M16.9,32.3c-0.1-0.2-0.1-0.4,0.2-0.5c0.6-0.3,0.9-0.9,1-1.5c0.1-0.5,0.1-1.1,0.2-1.6c0-0.3,0.1-0.3,0.4-0.3
			c1.7,0.5,3.5,0.5,5.2,0c0.3-0.1,0.3,0,0.3,0.3c0.1,0.6,0.1,1.2,0.2,1.8c0.1,0.6,0.4,1.1,0.9,1.4c0.1,0.1,0.4,0.1,0.3,0.3
			c-0.1,0.2-0.2,0.4-0.5,0.5c-1.3,0.3-2.6,0.5-3.9,0.5c-1.3,0-2.6-0.2-3.8-0.5C17.2,32.6,17,32.5,16.9,32.3z M22.5,36
			c0,0.4-0.8,1.3-1.2,1.3c-0.1,0-0.2,0-0.2-0.1c-1.2-0.8-2.1-1.8-3-3c1.7,0.3,3.4,0.4,5.1,0.2C22.6,34.9,22.5,35.4,22.5,36z
			 M26.4,46.3c0,0.3-0.1,0.3-0.3,0.3c-0.6,0-1.2,0-1.8,0c-0.3,0-0.4-0.1-0.4-0.4c0-1.7,0-3.4,0-5.1c0-1.7,0-3.4,0-5.1
			c0-0.3,0.1-0.4,0.4-0.4c0.6,0,1.2,0,1.8,0c0.3,0,0.3,0.1,0.3,0.3C26.4,39.4,26.4,42.8,26.4,46.3z M39.4,46.6c-1.9,0-3.7,0-5.6,0
			c-1.9,0-3.7,0-5.6,0c-0.3,0-0.4-0.1-0.4-0.4c0-3.4,0-6.8,0-10.2c0-0.3,0.1-0.4,0.4-0.4c1.9,0,3.7,0,5.6,0c0.3,0,0.4,0.1,0.4,0.4
			c0,1.5,0,3.1,0,4.6c0,0.9,0.2,1.8,0.6,2.6c0.2,0.4,0.4,0.8,0.6,1.2c0.5,0.8,1.5,0.8,2,0c0.7-1.2,1.3-2.5,1.2-4
			c-0.1-1.5,0-2.9,0-4.4c0-0.3,0.1-0.4,0.4-0.4c0.9,0,0.9,0,0.9,0.9c0,3.2,0,6.4,0,9.7C39.8,46.5,39.7,46.6,39.4,46.6z"/>
		<path class="st0" d="M25.2,39.5c0.4,0,0.7-0.3,0.7-0.7c0-0.2,0-0.3,0-0.5c0-0.2,0-0.4,0-0.6c0-0.4-0.3-0.7-0.7-0.7
			c-0.4,0-0.6,0.2-0.7,0.6c0,0.4,0,0.7,0,1.1C24.5,39.3,24.8,39.5,25.2,39.5z"/>
		<path class="st0" d="M25.9,43.4c0-0.4-0.3-0.7-0.7-0.7c-0.4,0-0.7,0.3-0.7,0.7c0,0.3,0,0.7,0,1c0,0.4,0.3,0.6,0.7,0.6
			c0.4,0,0.7-0.3,0.7-0.7c0-0.2,0-0.3,0-0.5C25.9,43.7,25.9,43.5,25.9,43.4z"/>
	</g>
</g>
</svg>
