<?xml version="1.0" encoding="utf-8"?>
<!-- Generator: Adobe Illustrator 23.0.6, SVG Export Plug-In . SVG Version: 6.00 Build 0)  -->
<svg version="1.1" id="Layer_1" xmlns="http://www.w3.org/2000/svg" xmlns:xlink="http://www.w3.org/1999/xlink" x="0px" y="0px"
	 viewBox="0 0 48 48" style="enable-background:new 0 0 48 48;" xml:space="preserve">
<style type="text/css">
	.st0{fill:#FFFFFF;}
</style>
<title>offerings4</title>
<g>
	<path class="st0" d="M-0.5,36.6c0.1,0.3,0.2,0.5,0,0.8V36.6z"/>
	<path class="st0" d="M10.1,48c0.2-0.2,0.5-0.1,0.8,0H10.1z"/>
	<path class="st0" d="M3.7,0C3.7,0,3.7,0.1,3.7,0C3.5,0.1,3.2,0.2,3,0H3.7z"/>
	<path class="st0" d="M-0.5,3.7c0.1,0.1,0.1,0.2,0,0.4V3.7z"/>
	<path class="st0" d="M22.1,0c-0.1,0.1-0.2,0.1-0.4,0H22.1z"/>
	<path class="st0" d="M-0.5,36c0.1,0.1,0.1,0.2,0,0.3V36z"/>
	<path class="st0" d="M11.3,48c0.1-0.1,0.1-0.1,0.2,0H11.3z"/>
	<path class="st0" d="M40.6,21c-0.7,0-0.7,0-0.7-0.7c0-0.8,0-0.8,0.8-0.8c0.7,0,0.7,0,0.7,0.7C41.4,21,41.4,21,40.6,21z"/>
	<path class="st0" d="M44.4,20.3c0,0.7,0,0.7-0.7,0.7c-0.8,0-0.8,0-0.8-0.8c0-0.7,0-0.7,0.7-0.7C44.4,19.5,44.4,19.5,44.4,20.3z"/>
	<path class="st0" d="M46.7,21c-0.8,0-0.8,0-0.8-0.8c0-0.7,0-0.7,0.7-0.7c0.8,0,0.8,0,0.8,0.8C47.4,21,47.4,21,46.7,21z"/>
	<path class="st0" d="M38.4,23.3c0,0.7,0,0.7-0.7,0.7c-0.8,0-0.8,0-0.8-0.8c0-0.7,0-0.7,0.7-0.7C38.4,22.5,38.4,22.5,38.4,23.3z"/>
	<path class="st0" d="M40.6,22.5c0.7,0,0.7,0,0.7,0.7c0,0.8,0,0.8-0.8,0.8c-0.7,0-0.7,0-0.7-0.7C39.9,22.5,39.9,22.5,40.6,22.5z"/>
	<path class="st0" d="M44.4,23.2c0,0.8,0,0.8-0.8,0.8c-0.7,0-0.7,0-0.7-0.7c0-0.8,0-0.8,0.8-0.8C44.4,22.5,44.4,22.5,44.4,23.2z"/>
	<path class="st0" d="M23.5,0.3c-0.3-0.1-0.7-0.2-1-0.3l-0.4,0c-0.1,0.1-0.3,0.1-0.4,0h-0.4c0,0.1-0.1,0.1-0.1,0.1
		c-0.1,0-0.2,0-0.3,0c-3.2,0.6-5.4,3.7-4.8,6.9c0.6,3.2,3.7,5.4,6.9,4.8c2.7-0.5,4.8-2.9,4.9-5.7C28,3.4,26.2,1,23.5,0.3z
		 M23.5,10.2c-0.5,0.2-1,0.3-1.6,0.3c-0.6,0-1.1-0.1-1.6-0.3c-0.2-0.1-0.3-0.1-0.1-0.4c0.7-1.4,1-3,1-4.6c0-0.4,0.3-0.7,0.7-0.8
		c0,0,0,0,0.1,0c0.4,0,0.7,0.3,0.7,0.8c0,1.6,0.3,3.1,1,4.5C23.8,10.1,23.7,10.1,23.5,10.2z M25.1,9.1c0,0-0.1,0.1-0.1,0.1h0
		c-0.6-1.2-0.9-2.5-0.9-3.8c0-1.1-0.6-1.9-1.5-2.2c-1.5-0.6-3,0.5-3,2.2c0,1.3-0.2,2.5-0.8,3.6c0,0.1-0.1,0.1-0.1,0.2
		C17,7.5,17,4.7,18.7,2.9c0,0,0,0,0.1-0.1c1.7-1.8,4.6-1.8,6.3-0.1C26.8,4.5,26.9,7.4,25.1,9.1z"/>
	<g>
		<path class="st0" d="M37.2,7c-0.1,0-0.1,0.1-0.1,0.1c-0.4,0.4-0.8,0.8-1.3,1.3c-0.1,0.1,0,0.2,0,0.3c0.8,1,0.8,1,1.7,0.1l0.2-0.2
			c0.5-0.5,0.5-0.5,0-1C37.5,7.4,37.3,7.2,37.2,7z"/>
		<path class="st0" d="M15.2,27.8c-2.6,0-4.5,1.9-4.5,4.5c0,2.5,1.8,4.4,4.4,4.5c2.4,0,4.4-1.8,4.5-4.4
			C19.6,29.7,17.8,27.8,15.2,27.8z M18.2,32.3c0,1.7-1.4,3-3,3c-1.7,0-3-1.4-3-3c0-1.7,1.4-3,3-3c0,0,0,0,0,0
			C16.9,29.3,18.2,30.6,18.2,32.3C18.2,32.3,18.2,32.3,18.2,32.3z"/>
		<path class="st0" d="M9,34.8c-0.3-0.3-0.5-0.7-0.8-0.7c-0.3,0-0.5,0.5-0.8,0.7c-0.2,0.2-0.2,0.3,0,0.5c1.4,1.4,2.9,2.9,4.3,4.3
			c0.7,0.7,0.6,0.7,1.3,0c0.1-0.1,0.3-0.2,0.4-0.3c-0.2-0.2-0.2-0.3-0.3-0.4C11.8,37.5,10.4,36.1,9,34.8z"/>
		<path class="st0" d="M38.7,9.9c-0.8,0.8-0.8,0.8,0,1.7c0.2,0.2,0.3,0.1,0.4,0c0.3-0.4,0.7-0.7,1.1-1.1c0.1-0.1,0.1-0.1,0.2-0.2
			c-0.1-0.1-0.2-0.2-0.4-0.3C39.4,9.3,39.4,9.3,38.7,9.9z"/>
		<path class="st0" d="M45.6,9.2c-0.2-0.2-0.2-0.3,0-0.4c0.4-0.4,0.8-0.8,1.3-1.3c0.6-0.6,0.6-0.9,0-1.6c-1.8-1.8-3.6-3.6-5.4-5.4
			C41.3,0.3,41,0.1,40.7,0l-0.2,0c-0.6,0.1-0.8,0.6-1.2,0.9c-0.3,0.3-0.5,0.8-0.9,0.8c-0.4,0-0.6-0.5-0.9-0.8C36.6,0,36.8,0,35.8,1
			c-0.2,0.2-0.2,0.4,0,0.7c0.3,0.3,0.6,0.6,1,1c0.4,0.4,0.4,0.4,0,0.8c-0.6,0.6-1.1,1.1-1.7,1.7c-0.4,0.4-0.4,0.4-0.7,0
			C34.1,5,34,4.8,33.8,4.6c-0.9-0.9-0.8-0.8-1.7,0.1c-0.3,0.3-0.2,0.5,0,0.8c0.4,0.3,0.7,0.7,1.1,1.1c0.2,0.2,0.2,0.4,0,0.6
			c-0.3,0.3-0.6,0.5-0.8,0.8c-1,1-1,1.2,0,2.3c0.4,0.4,0.4,0.4,0,0.7c-1.3,1.3-2.6,2.6-3.8,3.8c-1.1,1.1-2.3,2.3-3.4,3.4
			c-0.2,0.2-0.3,0.4-0.6,0.2c-0.9-0.4-1.9-0.7-2.9-0.8c-0.2,0-0.4-0.1-0.6-0.3c-0.9-0.9-1.8-1.9-2.6-2.9c-0.7-0.8-1.4-1.5-2.1-2.3
			c-1.2-1.4-2.5-2.7-3.7-4c-0.8-0.8-1.5-1.7-2.3-2.5C8.8,4.1,7.5,2.5,6.1,1.1C5.4,0.4,4.6,0,3.6,0.1C3.4,0,3.2,0.1,3,0H2.7
			c-1.4,0.2-2.4,1-3,2.3c-0.1,0.3-0.1,0.6-0.3,0.9v0.5c0.1,0.1,0.1,0.3,0,0.4v0.5c0.1,1.1,0.8,1.9,1.6,2.7
			c3.7,3.8,7.5,7.5,11.2,11.3c0.5,0.5,1.1,1.1,1.6,1.6c0.2,0.2,0.3,0.4,0,0.7c-0.5,0.6-0.9,1.2-1.3,1.8c-0.3,0.5-0.7,1-1.2,1.4
			c-1.1,1-2.4,1.6-3.8,2c-3.2,0.9-5.5,2.8-7,5.7c-0.7,1.3-1.1,2.6-1.2,4.1V36c0.1,0.1,0.1,0.2,0,0.3v0.3c0.1,0.2,0.1,0.5,0,0.8V38
			c0.1,0.4,0.1,0.8,0.2,1.1c0.3,1.2,0.7,2.4,1.4,3.5c1.3,2.1,3.1,3.7,5.4,4.6c1,0.4,2.1,0.7,3.2,0.8h0.5c0.2-0.1,0.5-0.1,0.8,0h0.4
			c0,0,0,0,0,0c0.1,0,0.1,0,0.2,0h0.2c0.4-0.2,0.7-0.1,1.1-0.2c4.4-1,7.4-3.6,8.7-8c0.7-2.3,1.8-4.2,3.9-5.4c0.5-0.3,1-0.6,1.4-1.1
			c0.2-0.2,0.4-0.2,0.6,0c3,3,6.1,6.1,9.1,9.1c0.2,0.2,0.2,0.4,0.2,0.6c-0.2,0.7-0.3,1.5-0.1,2.3c0.4,1.6,1.9,2.4,3.7,2.1
			c2.5-0.5,4.8-2.8,5.2-5.3c0.3-1.8-0.4-3.2-2.1-3.7c-0.7-0.2-1.4-0.1-2.1,0.1c-0.2,0.1-0.4,0-0.6-0.2c-0.8-0.8-1.5-1.6-2.3-2.4
			L30,27.3c-0.1-0.2-0.3-0.3-0.3-0.6c0-1.3-0.2-2.6-0.8-3.8c-0.1-0.2-0.1-0.4,0.1-0.5c0.1-0.1,0.2-0.2,0.3-0.3
			c2.4-2.4,4.9-4.9,7.3-7.3c0.3-0.3,0.4-0.3,0.6,0c0.2,0.2,0.4,0.4,0.6,0.6c0.3,0.3,0.6,0.4,1,0.1c0.3-0.3,0.6-0.5,0.9-0.8
			c0.3-0.3,0.6-0.8,0.9-0.8c0.3,0,0.6,0.5,0.9,0.8c0.8,0.8,0.8,0.8,1.6,0c0.2-0.2,0.2-0.3,0-0.5c-0.4-0.4-0.8-0.8-1.2-1.2
			c-0.2-0.2-0.2-0.3,0-0.5c0.5-0.5,1-1,1.6-1.6c0.3-0.3,0.6-0.8,0.9-0.8c0.4,0,0.6,0.5,0.9,0.8c0.9,0.8,0.8,0.8,1.7,0
			c0.2-0.2,0.2-0.2,0-0.4C46.5,10.1,46.1,9.7,45.6,9.2z M1.8,5.7C0.3,4.2,0.9,2,2.8,1.6c0.9-0.2,1.7,0.1,2.3,0.8
			c1.1,1.2,2.2,2.3,3.2,3.5L19,17.5c0.1,0.1,0.1,0.2,0.3,0.3c-0.9,0.2-1.7,0.4-2.5,0.8c-0.3,0.2-0.7,0.4-1,0.6
			c-0.3,0.2-0.4,0.1-0.6-0.1C10.7,14.6,6.3,10.2,1.8,5.7z M24.7,33c-1.7,1-3,2.3-3.9,4.1c-0.4,0.8-0.6,1.7-0.9,2.5
			c-1.2,3.6-3.6,5.8-7.3,6.6C7.3,47.5,2,43.8,1.1,38.4c-0.1-0.5-0.2-1-0.1-1.5c0-4.6,2.9-8.4,7.3-9.6c2.5-0.6,4.4-2,5.8-4.2
			c0.9-1.4,2-2.6,3.6-3.3c4.3-2,9.6,0.7,10.4,5.4C28.7,28.3,27.4,31.3,24.7,33z M29.4,28.9c1.5,1.6,2.9,3.1,4.4,4.6
			c2,2.1,4,4.3,6,6.4c0.4,0.4,0.7,0.5,1.2,0.3c0.4-0.2,0.8-0.3,1.3-0.3c1,0,1.7,0.7,1.6,1.8c-0.2,2.1-2.3,4.2-4.4,4.4
			c-1.2,0.1-2-0.8-1.7-2.1c0.1-0.3,0.1-0.6,0.3-0.8c0.3-0.5,0.1-0.9-0.3-1.2c-2.9-2.9-5.8-5.8-8.7-8.7c-0.3-0.3-0.7-0.7-1-1
			c-0.1-0.1-0.2-0.2-0.1-0.3C28.7,30.9,29.1,29.9,29.4,28.9z M35.6,13.7c-2.5,2.5-5,5-7.5,7.5c-0.1,0.1-0.2,0.2-0.3,0
			c-0.5-0.6-1-1.1-1.6-1.6c-0.2-0.1-0.2-0.2,0-0.4c2.5-2.5,5-5,7.5-7.5c0.1-0.1,0.1-0.1,0.2-0.2c0.1,0.1,0.1,0.1,0.2,0.2
			c0.5,0.5,1.1,1.1,1.6,1.6C35.9,13.5,35.8,13.6,35.6,13.7z M38.6,13.8c-0.2,0.2-0.3,0.2-0.5,0c-1.5-1.5-3-3-4.5-4.5
			c-0.2-0.2-0.2-0.3,0-0.5c2.2-2.2,4.5-4.5,6.7-6.7c0.1-0.1,0.1-0.1,0.2-0.2c0.1,0,0.2,0.1,0.2,0.2c1.5,1.5,3,3,4.5,4.5
			c0.2,0.2,0.2,0.3,0,0.4C43.1,9.2,40.9,11.5,38.6,13.8z"/>
		<path class="st0" d="M40.8,4.7c-0.7-0.7-0.7-0.7-1.4,0c-0.8,0.9-0.8,0.8,0.1,1.7c0.2,0.1,0.2,0.1,0.4,0C40.2,6,40.6,5.6,41,5.2
			C41,5.2,41.1,5.1,41.1,5C41,4.9,40.9,4.8,40.8,4.7z"/>
		<path class="st0" d="M41.7,6.9c-0.8,0.9-0.8,0.8,0.1,1.7c0.1,0.1,0.2,0.2,0.4,0c0.4-0.4,0.7-0.8,1.1-1.1c0.1-0.1,0.1-0.1,0.2-0.2
			C43.2,7.1,43.1,7,43,6.9C42.3,6.3,42.3,6.3,41.7,6.9z"/>
	</g>
</g>
</svg>
