<?xml version="1.0" encoding="utf-8"?>
<!-- Generator: Adobe Illustrator 23.0.6, SVG Export Plug-In . SVG Version: 6.00 Build 0)  -->
<svg version="1.1" id="Layer_1" xmlns="http://www.w3.org/2000/svg" xmlns:xlink="http://www.w3.org/1999/xlink" x="0px" y="0px"
	 viewBox="0 0 48 48" style="enable-background:new 0 0 48 48;" xml:space="preserve">
<style type="text/css">
	.st0{fill:#FFFFFF;}
</style>
<title>offerings2-02</title>
<g>
	<path class="st0" d="M24.1,0c2.7,0,5.4,0,8.2,0c1.5,0,2.1,0.4,2.6,1.9c0.7,2.1,2.2,3.3,4.4,3.4c1.4,0.1,2.2,0.9,2.2,2.2
		c0,4.2,0,8.4,0,12.6c0,0.3,0.2,0.7-0.4,0.7c-0.6,0-0.5-0.4-0.5-0.7c0-4,0-8.1,0-12.1c0-1.4-0.3-1.7-1.7-1.9
		c-2.4-0.3-4.1-1.6-4.8-3.9c-0.4-1.1-0.9-1.4-2-1.4c-5.4,0-10.8,0-16.1,0c-1.1,0-1.7,0.3-2,1.4c-0.8,2.4-2.5,3.7-5,3.9
		C7.8,6.3,7.4,6.6,7.4,7.8c0,4,0,7.9,0,11.9c0,0.2,0,0.4,0,0.5c0,0.3,0.1,0.6-0.5,0.6c-0.4,0-0.4-0.3-0.4-0.6c0-4.3,0-8.6,0-12.8
		c0-1.2,0.8-2,2.1-2.1c2.3-0.2,3.8-1.4,4.5-3.5C13.6,0.5,14.3,0,15.6,0C18.4,0,21.3,0,24.1,0z"/>
	<path class="st0" d="M24,3.4c2.1,0,4.2,0,6.4,0c0.9,0,1.5,0.3,1.9,1.1c1,1.8,2.6,3.2,4.6,3.9C37.6,8.6,38,9.1,38,10
		c0,3.4,0,6.7,0,10.1c0,0.3,0.2,0.8-0.4,0.8c-0.7,0-0.4-0.5-0.4-0.8c0-3.2,0-6.4,0-9.7c0-0.7-0.1-1.1-0.9-1.3
		c-2.1-0.7-3.7-2.1-4.7-4c-0.3-0.6-0.7-0.7-1.3-0.7c-4.2,0-8.3,0-12.5,0c-0.6,0-1,0.2-1.3,0.7c-1,1.9-2.7,3.3-4.7,4
		c-0.7,0.2-0.8,0.6-0.8,1.2c0,3.3,0,6.5,0,9.8c0,0.3,0.2,0.8-0.5,0.8c-0.6,0-0.4-0.5-0.4-0.8c0-3.4,0-6.7,0-10.1
		c0-0.9,0.4-1.4,1.2-1.6c2-0.6,3.6-2,4.6-3.9c0.4-0.7,0.9-1.1,1.8-1C19.7,3.4,21.8,3.4,24,3.4z"/>
	<path class="st0" d="M15.1,16.7c-0.2-2.9,0.4-5.6,2.4-7.7c3.4-3.6,9-3.8,12.6-0.4c1.8,1.6,2.8,3.9,2.8,6.3c0,1.3,0,2.7,0,4
		c0,1.4-1.6,2.3-2.8,1.7c-0.2-0.1-0.2-0.3-0.2-0.4c0-0.3,0.1-0.4,0.4-0.4c0.6,0,1.3,0.3,1.6-0.2c0.4-0.6,0.2-1.4,0.1-2.1
		c0-1.3,0.1-2.7-0.2-4c-0.8-4.1-4.5-6.7-8.7-6.4c-3.9,0.3-7.1,3.7-7.2,7.7c0,1.3,0,2.6,0,3.9c0,0.8,0.2,1.1,1,1c0.2,0,0.5,0,0.7,0
		c0.3,0,0.4,0.1,0.4,0.4c0,0.2-0.1,0.3-0.4,0.4c-1.7,0.4-2.6-0.3-2.6-2.1C15.1,17.9,15.1,17.3,15.1,16.7z"/>
	<path class="st0" d="M39.2,27.6c0.7,0.1,0.8,0.3,0.6,0.7c-1.4,3.4-3.6,6.2-6.5,8.5c-0.2,0.2-0.4,0.2-0.6,0c-0.3-0.4,0-0.6,0.2-0.8
		c1.6-1.2,2.9-2.7,4.1-4.3c0.8-1.1,1.4-2.3,1.9-3.5C39.1,27.9,39.1,27.6,39.2,27.6z"/>
	<path class="st0" d="M8.6,27.6c0.2,0,0.3,0.2,0.4,0.5c1.3,3.2,3.3,5.8,6,7.9c0.3,0.2,0.6,0.4,0.2,0.8s-0.6,0-0.8-0.2
		c-2.8-2.2-4.9-4.8-6.2-8.1C8.1,28.1,7.8,27.7,8.6,27.6z"/>
	<path class="st0" d="M15.7,32.1c-0.1,0.1-0.2,0.3-0.3,0.4c-0.2,0.2-0.3,0.1-0.5-0.1c-1.3-1.2-2.3-2.7-3.1-4.2
		c-0.1-0.2-0.2-0.4,0.1-0.6c0.3-0.2,0.5-0.1,0.7,0.2c0.7,1.5,1.7,2.8,2.8,3.9C15.5,31.9,15.6,32,15.7,32.1z"/>
	<path class="st0" d="M36.3,27.9L36.3,27.9c-0.9,1.8-2,3.3-3.3,4.6c-0.2,0.2-0.3-0.1-0.5-0.2c-0.2-0.2-0.2-0.3,0-0.5
		c1.2-1.2,2.2-2.6,3-4.1c0.1-0.3,0.3-0.2,0.5-0.2C36.1,27.7,36.2,27.7,36.3,27.9z"/>
	<path class="st0" d="M44.8,20c0-0.8-0.5-1.3-1.3-1.3c-0.8,0-1.2,0.5-1.2,1.3c0,0.4,0,0.8,0,1.3c0,0.6-0.2,0.8-0.8,0.8
		c-5.2,0-10.5,0-15.7,0c2-0.9,3.3-2.4,3.7-4.5c0.2-0.9,0.1-1.8,0.1-2.8c0-1.2-0.6-1.9-1.8-2.2c-2.3-0.4-4.5-0.8-6.8-1.1
		c-1.2-0.2-2.3,0.6-2.4,1.7c-0.1,1.5-0.2,3.1,0.1,4.6c0.4,2,1.8,3.3,3.9,4.2H7.7c-1.9,0-1.9,0-2-1.9c0-0.9-0.3-1.5-1.3-1.5
		c-0.8-0.1-1.3,0.6-1.3,1.6c0,1.1,0,2.3,0,3.4c0,1.9,0.7,2.7,2.6,2.7c3.3,0,6.6,0,10,0c0.7,0,1,0.1,1,0.9c0.2,8.2,0.2,8.2-2.4,16
		c-0.1,0.3-0.2,0.7-0.3,1c-0.6,1.8-0.2,2.4,1.7,2.4c0.6,0,1.3-0.1,1.1,0.9c-0.1,0.3,0.1,0.4,0.4,0.4c0.2,0,0.5,0,0.4-0.3
		c-0.2-1.1,0.5-1,1.2-0.9c0.7,0,1.3,0,2,0c0.6,0,1.3-0.2,1.1,0.9C21.8,47.9,22,48,22.3,48c0.3,0,0.5-0.1,0.4-0.4
		c-0.2-1.3,0.8-0.8,1.4-0.8c0.6-0.1,1.4-0.3,1.2,0.8c-0.1,0.3,0.1,0.5,0.4,0.4c0.2,0,0.5,0,0.4-0.3c-0.2-1.2,0.6-1,1.3-1
		c0.8,0,1.6,0,2.3,0c0.5,0,0.7,0.1,0.7,0.6c0,0.3-0.1,0.6,0.4,0.7c0.5,0,0.5-0.3,0.4-0.6c-0.1-0.6,0.2-0.7,0.7-0.7
		c0.4,0,0.7,0,1.1,0c0.9-0.1,1.4-0.7,1.2-1.6c-0.1-0.3-0.2-0.7-0.3-1c-2.3-5.3-3.2-10.8-2.7-16.5c0.1-0.9,0.2-1.3,1.2-1.3
		c3.3,0.1,6.6,0,10,0c1.4,0,2.3-0.8,2.4-2C44.8,22.9,44.8,21.4,44.8,20z M19.3,16.8c0-0.5,0-0.9,0-1.4c0-3.3,0.1-3.3,3.3-2.8
		c1.5,0.3,3.1,0.5,4.6,0.8c1,0.1,1.5,0.6,1.5,1.7c-0.1,0.9,0.1,1.8-0.2,2.7c-0.6,2.3-2.7,3.8-5,3.5C21.2,21.1,19.4,19.1,19.3,16.8z
		 M23.4,25.3c0-0.4,0.1-0.7,0.6-0.7c0.5,0,0.5,0.3,0.5,0.6c0.2,1.6,0.4,3.2,0.7,5.1c0,0.3-0.8,1.4-1.3,1.4c-0.4,0-1.2-1.2-1.2-1.7
		C23,28.4,23.2,26.8,23.4,25.3z M22.8,23.4c0-0.7,0.8-0.4,1.2-0.4c0.4,0,1.2-0.3,1.2,0.4c0,0.7-0.8,0.3-1.2,0.5
		C23.6,23.7,22.8,24.1,22.8,23.4z M6,25.5c-1.2,0.1-1.9-0.3-2-1.2c-0.1-0.7,0-1.4,0-2.1h0c0-0.7,0-1.4,0-2.1c0-0.3,0.1-0.5,0.4-0.5
		c0.3,0,0.4,0.2,0.4,0.5c0,0.4,0,0.8,0,1.2c0,0.9,0.3,1.6,1.3,1.7c0.3,0,0.4,0.1,0.4,0.4c0,0.3,0.1,0.7,0,0.9
		C6.4,24.7,7,25.4,6,25.5z M20.7,38.1c-0.2,2.4-0.4,4.7-0.5,7.1c0,0.6-0.2,0.7-0.8,0.7c-0.7,0-1.3,0-2,0c-0.7,0-1.5,0-2.2,0
		c-0.6,0-0.8-0.3-0.6-0.8c0.9-2.7,1.8-5.4,2.7-8.1c0.1-0.3,0.3-0.4,0.6-0.4c0.4,0,0.8,0,1.3,0C20.9,36.5,20.9,36.5,20.7,38.1z
		 M26.3,45.9c-1.5,0-3,0-4.5,0c-0.6,0-0.7-0.2-0.6-0.7c0.1-1.3,0.2-2.7,0.3-4l0,0c0.1-1.3,0.2-2.6,0.3-3.9c0-0.5,0.1-0.8,0.7-0.7
		c1.1,0,2.2,0,3.3,0c0.6,0,0.7,0.2,0.7,0.7c0.2,2.6,0.3,5.3,0.6,7.9C27,45.7,26.8,45.9,26.3,45.9z M31.2,38.9c0.7,2,1.3,3.9,2,5.9
		c0.3,0.9,0.1,1.2-0.8,1.1c-0.6,0-1.3,0-2.1,0c-0.7-0.1-1.9,0.4-2.4-0.2c-0.5-0.6-0.2-1.7-0.3-2.6c-0.1-1.9-0.3-3.9-0.4-5.8
		c-0.1-0.6,0.1-0.7,0.7-0.8C30.4,36.5,30.4,36.5,31.2,38.9z M38.8,25.5c-2.2,0-4.5,0-6.7,0c-1.4,0-1.7,0.4-1.7,1.8c0,2.5,0,5,0,7.5
		c0,0.7-0.1,0.9-0.8,0.9c-3.7,0-7.4,0-11,0c-0.8,0-0.9-0.3-0.9-1c0-2.5,0-5,0-7.5c0-1.3-0.4-1.7-1.7-1.7c-2.5,0-5.1,0-7.6,0
		c-0.7,0-0.9-0.2-0.9-0.9c0-1.7,0-1.7,1.7-1.7c2.9,0,5.7,0,8.6,0c0.6,0,0.8,0.2,0.9,0.7c0.2,1.2,0.8,2.2,1.8,3
		c0.2,0.2,0.4,0.5,0.7,0.1c0.2-0.3,0.2-0.5-0.1-0.7c-0.9-0.8-1.5-1.8-1.6-3.1c0.7,0,1.3,0,1.9,0c0.4,0,0.5,0.2,0.7,0.5
		c1.3,2,0.1,4.1,0.1,6.1c0,1.1,0.4,2.4,1.3,2.9c0.4,0.2,0.8,0.3,1.2,0.1c0.8-0.4,1.6-1.8,1.5-2.7c-0.2-1.2-0.2-2.5-0.6-3.7
		c-0.4-1.2,0.6-2,0.7-3c0-0.2,0.3-0.1,0.4-0.1c0.7,0,1.3,0,2,0c-0.1,1.2-0.6,2.2-1.5,3c-0.3,0.3-0.5,0.5-0.2,0.8
		c0.4,0.4,0.6-0.1,0.7-0.2c0.8-0.7,1.4-1.7,1.6-2.8c0.1-0.7,0.4-0.9,1.1-0.9c3.1,0,6.2,0,9.3,0c0.7,0,0.8,0.2,0.8,0.8
		C40.5,25.5,40.6,25.5,38.8,25.5z M43.9,22.2c0,0.6,0,1.3,0,1.9c0,0.5-0.2,0.8-0.5,1.1c-0.6,0.4-1.3,0.3-1.9,0.2
		c-0.1,0-0.1-2.3,0-2.4c0,0,0.1-0.1,0.2-0.1c1.6-0.1,1.5-1.2,1.5-2.3c0-0.1,0-0.3,0-0.4c0-0.3,0-0.7,0.5-0.7c0.4,0,0.4,0.3,0.4,0.6
		C43.9,20.9,43.9,21.6,43.9,22.2z"/>
	<path class="st0" d="M24,20.2c-1,0-1.9-0.8-2.1-1.7c-0.1-0.3-0.1-0.7,0.3-0.8c0.3-0.1,0.5,0.2,0.5,0.5c0.1,0.7,0.6,1.1,1.3,1.1
		c0.7,0,1.1-0.4,1.2-1.1c0.1-0.3,0.2-0.6,0.5-0.5c0.4,0.1,0.4,0.4,0.3,0.8C25.9,19.4,25,20.2,24,20.2z"/>
	<path class="st0" d="M22.3,15.9c-0.1,0.5-0.4,0.8-0.9,0.8c-0.5,0-0.8-0.3-0.8-0.8c0-0.5,0.4-0.8,0.9-0.8
		C22,15.1,22.2,15.4,22.3,15.9z"/>
	<path class="st0" d="M27.4,15.9c-0.1,0.5-0.4,0.8-1,0.7c-0.5-0.1-0.8-0.4-0.7-0.9c0.1-0.5,0.4-0.8,0.9-0.7
		C27.1,15.1,27.4,15.4,27.4,15.9z"/>
</g>
</svg>
